<svg id="Layer_1" data-name="Layer 1" xmlns="http://www.w3.org/2000/svg" viewBox="0 0 375 375"><defs><style>.cls-1{fill:#f7931e;}.cls-2{fill:#fff;}</style></defs><circle class="cls-1" cx="187.5" cy="187.5" r="187.5"/><circle cx="188" cy="188" r="95.5"/><path d="M188,96a92,92,0,1,1-92,92,92.1,92.1,0,0,1,92-92m0-7a99,99,0,1,0,99,99,99,99,0,0,0-99-99Z"/><ellipse class="cls-2" cx="187.58" cy="187.75" rx="36.92" ry="36.75"/><path d="M187.58,154.5a33.25,33.25,0,1,1-33.41,33.25,33.37,33.37,0,0,1,33.41-33.25m0-7A40.25,40.25,0,1,0,228,187.75a40.33,40.33,0,0,0-40.42-40.25Z"/><path class="cls-2" d="M187.08,109.5a77.75,77.75,0,1,1-77.91,77.75,77.92,77.92,0,0,1,77.91-77.75m0-3A80.75,80.75,0,1,0,268,187.25a80.83,80.83,0,0,0-80.92-80.75Z"/></svg>