<svg id="Layer_1" data-name="Layer 1" xmlns="http://www.w3.org/2000/svg" viewBox="0 0 375 375"><defs><style>.cls-1{fill:#f7931e;}.cls-2{fill:none;stroke:#000;stroke-miterlimit:10;stroke-width:10px;}</style></defs><circle class="cls-1" cx="187.5" cy="187.5" r="187.5"/><path d="M117.67,242.5c14.06,0,25.5,11.66,25.5,26s-11.44,26-25.5,26-25.5-11.66-25.5-26,11.44-26,25.5-26m0-10c-19.61,0-35.5,16.12-35.5,36s15.89,36,35.5,36,35.5-16.12,35.5-36-15.9-36-35.5-36Z"/><path d="M217.67,213.5c14.06,0,25.5,11.66,25.5,26s-11.44,26-25.5,26-25.5-11.66-25.5-26,11.44-26,25.5-26m0-10c-19.61,0-35.5,16.12-35.5,36s15.89,36,35.5,36,35.5-16.12,35.5-36-15.9-36-35.5-36Z"/><line class="cls-2" x1="146.17" y1="259.5" x2="146.17" y2="95.5"/><polyline class="cls-2" points="146.67 100.17 244.17 56.5 244.17 224.5"/></svg>